<svg id="visual" viewBox="0 0 900 600" width="900" height="600" xmlns="http://www.w3.org/2000/svg" xmlns:xlink="http://www.w3.org/1999/xlink" version="1.1"><rect x="0" y="0" width="900" height="600" fill="#111827"></rect><path d="M0 440L21.5 436.8C43 433.7 86 427.3 128.8 433.2C171.7 439 214.3 457 257.2 465.8C300 474.7 343 474.3 385.8 470.2C428.7 466 471.3 458 514.2 450C557 442 600 434 642.8 426.7C685.7 419.3 728.3 412.7 771.2 416.5C814 420.3 857 434.7 878.5 441.8L900 449L900 601L878.5 601C857 601 814 601 771.2 601C728.3 601 685.7 601 642.8 601C600 601 557 601 514.2 601C471.3 601 428.7 601 385.8 601C343 601 300 601 257.2 601C214.3 601 171.7 601 128.8 601C86 601 43 601 21.5 601L0 601Z" fill="#60a5fa"></path><path d="M0 468L21.5 473.2C43 478.3 86 488.7 128.8 491C171.7 493.3 214.3 487.7 257.2 483.3C300 479 343 476 385.8 471.7C428.7 467.3 471.3 461.7 514.2 466.2C557 470.7 600 485.3 642.8 483.8C685.7 482.3 728.3 464.7 771.2 457.7C814 450.7 857 454.3 878.5 456.2L900 458L900 601L878.5 601C857 601 814 601 771.2 601C728.3 601 685.7 601 642.8 601C600 601 557 601 514.2 601C471.3 601 428.7 601 385.8 601C343 601 300 601 257.2 601C214.3 601 171.7 601 128.8 601C86 601 43 601 21.5 601L0 601Z" fill="#4979b4"></path><path d="M0 514L21.5 517.7C43 521.3 86 528.7 128.8 529.3C171.7 530 214.3 524 257.2 518.3C300 512.7 343 507.3 385.8 506.7C428.7 506 471.3 510 514.2 513.7C557 517.3 600 520.7 642.8 525.5C685.7 530.3 728.3 536.7 771.2 534.5C814 532.3 857 521.7 878.5 516.3L900 511L900 601L878.5 601C857 601 814 601 771.2 601C728.3 601 685.7 601 642.8 601C600 601 557 601 514.2 601C471.3 601 428.7 601 385.8 601C343 601 300 601 257.2 601C214.3 601 171.7 601 128.8 601C86 601 43 601 21.5 601L0 601Z" fill="#344f72"></path><path d="M0 534L21.5 534.5C43 535 86 536 128.8 537.2C171.7 538.3 214.3 539.7 257.2 543C300 546.3 343 551.7 385.8 553.7C428.7 555.7 471.3 554.3 514.2 550.8C557 547.3 600 541.7 642.8 541.3C685.7 541 728.3 546 771.2 550.8C814 555.7 857 560.3 878.5 562.7L900 565L900 601L878.5 601C857 601 814 601 771.2 601C728.3 601 685.7 601 642.8 601C600 601 557 601 514.2 601C471.3 601 428.7 601 385.8 601C343 601 300 601 257.2 601C214.3 601 171.7 601 128.8 601C86 601 43 601 21.5 601L0 601Z" fill="#1f2937"></path></svg>